<svg xmlns="http://www.w3.org/2000/svg" 
version="1.1" 
xmlns:xlink="http://www.w3.org/1999/xlink" 
xmlns:svgjs="http://svgjs.dev/svgjs" 
width="1000" 
height="623" 
viewBox="0 0 1000 623">

<g transform="matrix(1,0,0,1,-0.6060606060606233,0.2522267206477409)">

<svg viewBox="0 0 396 247" 
data-background-color="#ffffff" 
preserveAspectRatio="xMidYMid meet" 
height="623" 
width="1000" 
xmlns="http://www.w3.org/2000/svg" 
xmlns:xlink="http://www.w3.org/1999/xlink">
<g id="tight-bounds" 
transform="matrix(1,0,0,1,0.2400000000000091,-0.09999999999999432)">
<svg viewBox="0 0 395.52 247.2" 
height="247.2" width="395.52">
<g><svg></svg></g><g>
<svg viewBox="0 0 395.52 247.2" 
height="247.2" width="395.52">
<g transform="matrix(1,0,0,1,152.69296799999998,47.215199999999996)">
<svg viewBox="0 0 90.13406400000001 152.7696" 
height="152.7696" width="90.13406400000001">
<g>
<svg viewBox="0 0 90.13406400000001 152.7696" 
height="152.7696" width="90.13406400000001">
<g>
<svg viewBox="0 0 90.13406400000001 152.7696" height="152.7696" width="90.13406400000001">
<g>
<svg viewBox="0 0 90.13406400000001 152.7696" height="152.7696" width="90.13406400000001">
<g id="textblocktransform">
<svg viewBox="0 0 90.13406400000001 152.7696" height="152.7696" width="90.13406400000001" id="textblock">
<g>
<svg viewBox="0 0 90.13406400000001 152.7696" height="152.7696" width="90.13406400000001">
<g transform="matrix(1,0,0,1,0,0)">
<svg width="90.13406400000001" viewBox="4.550000190734863 -35 20.650001525878906 35" height="152.7696" data-palette-color="#f05225">

<path d="M13.4-14.7L13.4-14.7 8.3-14.7 8.3 0 4.55 0 4.55-35 14.55-35Q20.15-35 22.68-32.55 25.2-30.1 25.2-24.93 25.2-19.75 22.1-17.23 19-14.7 13.4-14.7ZM12.85-31.8L12.85-31.8 8.3-31.8 8.3-17.9 11.6-17.9Q16.75-17.9 19.1-19.45 21.45-21 21.45-24.78 21.45-28.55 19.4-30.18 17.35-31.8 12.85-31.8Z" 
opacity="1" 
transform="matrix(1,0,0,1,0,0)" 
fill="#f05225" 
class="wordmark-text-0" 
data-fill-palette-color="primary" 
id="text-0">
</path>

</svg></g></svg></g></svg></g></svg></g></svg></g></svg></g></svg></g>

<path d="M60.526 41.215L60.526 0 307.726 0 307.726 247.2 60.526 247.2 60.526 205.985 74.303 205.985 74.303 233.423 293.949 233.423 293.949 13.777 74.303 13.777 74.303 41.215Z" 
fill="#f05225" 
stroke="transparent" 
data-fill-palette-color="primary">
</path>

</svg></g><defs></defs></svg>
<rect width="395.52" height="247.2" fill="none" stroke="none" visibility="hidden"></rect>
</g></svg></g></svg>